<?xml version="1.0" encoding="iso-8859-1"?>
<!-- Generator: Adobe Illustrator 25.2.3, SVG Export Plug-In . SVG Version: 6.00 Build 0)  -->
<svg version="1.1" xmlns="http://www.w3.org/2000/svg" xmlns:xlink="http://www.w3.org/1999/xlink" x="0px" y="0px"
	 viewBox="0 0 50 50" style="enable-background:new 0 0 50 50;" xml:space="preserve">
<g id="Layer_1">
	<g>
	</g>
	<g>
		<path d="M25,2v14h-7c-3.855,0-7-3.145-7-7c0-3.855,3.145-7,7-7H25z"/>
	</g>
	<g>
		<path d="M25,18v14h-7c-3.855,0-7-3.145-7-7c0-3.855,3.145-7,7-7H25z"/>
	</g>
	<g>
		<path d="M25,34v7c0,3.855-3.145,7-7,7s-7-3.145-7-7c0-3.855,3.145-7,7-7H25z"/>
	</g>
	<g>
		<path d="M41,9c0,3.855-3.145,7-7,7h-7V2h7C37.855,2,41,5.145,41,9z"/>
	</g>
	<g>
		<circle cx="34" cy="25" r="7"/>
	</g>
</g>
<g id="Layer_2">
</g>
</svg>